0
SECTION
2
HEADER
9
$INSUNITS
70
4
9
$ACADVER
1
AC1014
9
$HANDSEED
5
FFFF
0
ENDSEC
0
SECTION
2
TABLES
0
TABLE
2
VPORT
5
8
100
AcDbSymbolTable
0
ENDTAB
0
TABLE
2
LTYPE
5
5
100
AcDbSymbolTable
0
LTYPE
5
14
100
AcDbSymbolTableRecord
100
AcDbLinetypeTableRecord
2
BYBLOCK
70
0
0
LTYPE
5
15
100
AcDbSymbolTableRecord
100
AcDbLinetypeTableRecord
2
BYLAYER
70
0
0
ENDTAB
0
TABLE
2
LAYER
5
2
100
AcDbSymbolTable
70
2
0
LAYER
5
50
100
AcDbSymbolTableRecord
100
AcDbLayerTableRecord
2
0
70
0
6
CONTINUOUS
0
ENDTAB
0
TABLE
2
STYLE
5
3
100
AcDbSymbolTable
70
1
0
STYLE
5
11
100
AcDbSymbolTableRecord
100
AcDbTextStyleTableRecord
2
STANDARD
70
0
0
ENDTAB
0
TABLE
2
VIEW
5
6
100
AcDbSymbolTable
70
0
0
ENDTAB
0
TABLE
2
UCS
5
7
100
AcDbSymbolTable
70
0
0
ENDTAB
0
TABLE
2
APPID
5
9
100
AcDbSymbolTable
70
2
0
APPID
5
12
100
AcDbSymbolTableRecord
100
AcDbRegAppTableRecord
2
ACAD
70
0
0
ENDTAB
0
TABLE
2
DIMSTYLE
5
A
100
AcDbSymbolTable
70
1
0
ENDTAB
0
TABLE
2
BLOCK_RECORD
5
1
100
AcDbSymbolTable
70
1
0
BLOCK_RECORD
5
1F
100
AcDbSymbolTableRecord
100
AcDbBlockTableRecord
2
*MODEL_SPACE
0
BLOCK_RECORD
5
1B
100
AcDbSymbolTableRecord
100
AcDbBlockTableRecord
2
*PAPER_SPACE
0
ENDTAB
0
ENDSEC
0
SECTION
2
BLOCKS
0
BLOCK
5
20
100
AcDbEntity
100
AcDbBlockBegin
2
*MODEL_SPACE
0
ENDBLK
5
21
100
AcDbEntity
100
AcDbBlockEnd
0
BLOCK
5
1C
100
AcDbEntity
100
AcDbBlockBegin
2
*PAPER_SPACE
0
ENDBLK
5
1D
100
AcDbEntity
100
AcDbBlockEnd
0
ENDSEC
0
SECTION
2
ENTITIES
0
LINE
5
100
100
AcDbEntity
8
0
100
AcDbLine
10
222.88854381999835
20
2
30
0
11
222.88854381999835
21
-2.000000000000028
31
0
0
LINE
5
101
100
AcDbEntity
8
0
100
AcDbLine
10
222.88854381999835
20
-2.000000000000028
30
0
11
17.888543819998318
21
-2
31
0
0
LINE
5
102
100
AcDbEntity
8
0
100
AcDbLine
10
17.888543819998318
20
2.0000000000000022
30
0
11
222.88854381999835
21
2
31
0
0
ARC
5
103
100
AcDbEntity
8
0
100
AcDbCircle
10
0
20
0
30
0
40
18
100
AcDbArc
50
-6.379370208442829
51
186.37937020844277
0
LINE
5
104
100
AcDbEntity
8
0
100
AcDbLine
10
217.74530454359052
20
47.64751111462526
30
0
11
17.885082546316649
21
2.0307196535808338
31
0
0
LINE
5
105
100
AcDbEntity
8
0
100
AcDbLine
10
16.994998810491392
20
5.9304313023081301
30
0
11
216.85522080776525
21
51.547222763352579
31
0
0
LINE
5
106
100
AcDbEntity
8
0
100
AcDbLine
10
216.85522080776525
20
51.547222763352579
30
0
11
217.74530454359052
21
47.64751111462526
31
0
0
LINE
5
107
100
AcDbEntity
8
0
100
AcDbLine
10
201.6834064721578
20
94.905777063283722
30
0
11
16.984788552161817
21
5.9596105441843186
31
0
0
LINE
5
108
100
AcDbEntity
8
0
100
AcDbLine
10
15.249253595691583
20
9.5634860157939965
30
0
11
199.94787151568755
21
98.509652534893419
31
0
0
LINE
5
109
100
AcDbEntity
8
0
100
AcDbLine
10
199.94787151568755
20
98.509652534893419
30
0
11
201.6834064721578
21
94.905777063283722
31
0
0
LINE
5
110
100
AcDbEntity
8
0
100
AcDbLine
10
175.50826024364721
20
137.40507105797633
30
0
11
15.232806337701064
21
9.5896616769359646
31
0
0
LINE
5
111
100
AcDbEntity
8
0
100
AcDbLine
10
12.738847130266128
20
12.716987606808086
30
0
11
173.01430103621226
21
140.53239698784847
31
0
0
LINE
5
112
100
AcDbEntity
8
0
100
AcDbLine
10
173.01430103621226
20
140.53239698784847
30
0
11
175.50826024364721
21
137.40507105797633
31
0
0
LINE
5
113
100
AcDbEntity
8
0
100
AcDbLine
10
140.5323969878485
20
173.01430103621226
30
0
11
12.716987606808082
21
12.73884713026613
31
0
0
LINE
5
114
100
AcDbEntity
8
0
100
AcDbLine
10
9.5896616769359628
20
15.232806337701065
30
0
11
137.40507105797636
21
175.50826024364721
31
0
0
LINE
5
115
100
AcDbEntity
8
0
100
AcDbLine
10
137.40507105797636
20
175.50826024364721
30
0
11
140.5323969878485
21
173.01430103621226
31
0
0
LINE
5
116
100
AcDbEntity
8
0
100
AcDbLine
10
98.509652534893419
20
199.9478715156875
30
0
11
9.5634860157939947
21
15.249253595691588
31
0
0
LINE
5
117
100
AcDbEntity
8
0
100
AcDbLine
10
5.959610544184315
20
16.98478855216182
30
0
11
94.905777063283722
21
201.68340647215774
31
0
0
LINE
5
118
100
AcDbEntity
8
0
100
AcDbLine
10
94.905777063283722
20
201.68340647215774
30
0
11
98.509652534893419
21
199.9478715156875
31
0
0
LINE
5
119
100
AcDbEntity
8
0
100
AcDbLine
10
51.547222763352643
20
216.85522080776522
30
0
11
5.9304313023081328
21
16.994998810491392
31
0
0
LINE
5
120
100
AcDbEntity
8
0
100
AcDbLine
10
2.0307196535808356
20
17.885082546316649
30
0
11
47.647511114625317
21
217.74530454359049
31
0
0
LINE
5
121
100
AcDbEntity
8
0
100
AcDbLine
10
47.647511114625317
20
217.74530454359049
30
0
11
51.547222763352643
21
216.85522080776522
31
0
0
LINE
5
122
100
AcDbEntity
8
0
100
AcDbLine
10
1.9999999999999793
20
222.88854381999838
30
0
11
1.9999999999999969
21
17.888543819998322
31
0
0
LINE
5
123
100
AcDbEntity
8
0
100
AcDbLine
10
-2.0000000000000067
20
17.888543819998322
30
0
11
-2.0000000000000502
21
222.88854381999838
31
0
0
LINE
5
124
100
AcDbEntity
8
0
100
AcDbLine
10
-2.0000000000000502
20
222.88854381999838
30
0
11
1.9999999999999793
21
222.88854381999838
31
0
0
LINE
5
125
100
AcDbEntity
8
0
100
AcDbLine
10
-47.647511114625246
20
217.74530454359055
30
0
11
-2.030719653580833
21
17.885082546316653
31
0
0
LINE
5
126
100
AcDbEntity
8
0
100
AcDbLine
10
-5.9304313023081301
20
16.994998810491396
30
0
11
-51.547222763352572
21
216.85522080776531
31
0
0
LINE
5
127
100
AcDbEntity
8
0
100
AcDbLine
10
-51.547222763352572
20
216.85522080776531
30
0
11
-47.647511114625246
21
217.74530454359055
31
0
0
LINE
5
128
100
AcDbEntity
8
0
100
AcDbLine
10
-94.905777063283693
20
201.6834064721578
30
0
11
-5.9596105441843168
21
16.984788552161817
31
0
0
LINE
5
129
100
AcDbEntity
8
0
100
AcDbLine
10
-9.5634860157939965
20
15.249253595691583
30
0
11
-98.509652534893405
21
199.94787151568755
31
0
0
LINE
5
130
100
AcDbEntity
8
0
100
AcDbLine
10
-98.509652534893405
20
199.94787151568755
30
0
11
-94.905777063283693
21
201.6834064721578
31
0
0
LINE
5
131
100
AcDbEntity
8
0
100
AcDbLine
10
-137.40507105797633
20
175.50826024364721
30
0
11
-9.5896616769359646
21
15.232806337701065
31
0
0
LINE
5
132
100
AcDbEntity
8
0
100
AcDbLine
10
-12.716987606808086
20
12.73884713026613
30
0
11
-140.53239698784847
21
173.01430103621226
31
0
0
LINE
5
133
100
AcDbEntity
8
0
100
AcDbLine
10
-140.53239698784847
20
173.01430103621226
30
0
11
-137.40507105797633
21
175.50826024364721
31
0
0
LINE
5
134
100
AcDbEntity
8
0
100
AcDbLine
10
-173.01430103621226
20
140.53239698784853
30
0
11
-12.73884713026613
21
12.716987606808088
31
0
0
LINE
5
135
100
AcDbEntity
8
0
100
AcDbLine
10
-15.232806337701067
20
9.5896616769359646
30
0
11
-175.50826024364721
21
137.40507105797639
31
0
0
LINE
5
136
100
AcDbEntity
8
0
100
AcDbLine
10
-175.50826024364721
20
137.40507105797639
30
0
11
-173.01430103621226
21
140.53239698784853
31
0
0
LINE
5
137
100
AcDbEntity
8
0
100
AcDbLine
10
-199.9478715156875
20
98.509652534893462
30
0
11
-15.249253595691584
21
9.5634860157939965
31
0
0
LINE
5
138
100
AcDbEntity
8
0
100
AcDbLine
10
-16.98478855216182
20
5.9596105441843186
30
0
11
-201.68340647215774
21
94.90577706328375
31
0
0
LINE
5
139
100
AcDbEntity
8
0
100
AcDbLine
10
-201.68340647215774
20
94.90577706328375
30
0
11
-199.9478715156875
21
98.509652534893462
31
0
0
LINE
5
140
100
AcDbEntity
8
0
100
AcDbLine
10
-216.85522080776525
20
51.547222763352636
30
0
11
-16.994998810491396
21
5.930431302308131
31
0
0
LINE
5
141
100
AcDbEntity
8
0
100
AcDbLine
10
-17.885082546316657
20
2.0307196535808343
30
0
11
-217.74530454359052
21
47.64751111462531
31
0
0
LINE
5
142
100
AcDbEntity
8
0
100
AcDbLine
10
-217.74530454359052
20
47.64751111462531
30
0
11
-216.85522080776525
21
51.547222763352636
31
0
0
LINE
5
143
100
AcDbEntity
8
0
100
AcDbLine
10
-222.88854381999835
20
2.0000000000000555
30
0
11
-17.888543819998318
21
2.0000000000000022
31
0
0
LINE
5
144
100
AcDbEntity
8
0
100
AcDbLine
10
-17.888543819998318
20
-1.9999999999999998
30
0
11
-222.88854381999835
21
-1.9999999999999729
31
0
0
LINE
5
145
100
AcDbEntity
8
0
100
AcDbLine
10
-222.88854381999835
20
-1.9999999999999729
30
0
11
-222.88854381999835
21
2.0000000000000555
31
0
0
CIRCLE
5
146
100
AcDbEntity
8
0
100
AcDbCircle
10
0
20
0
30
0
40
3.0000000000000004
0
LINE
5
147
100
AcDbEntity
8
0
100
AcDbLine
10
-299.99999999999994
20
239.99999999999997
30
0
11
300.00000000000006
21
239.99999999999989
31
0
0
LINE
5
148
100
AcDbEntity
8
0
100
AcDbLine
10
300.00000000000006
20
239.99999999999989
30
0
11
300.00000000000006
21
-50
31
0
0
LINE
5
149
100
AcDbEntity
8
0
100
AcDbLine
10
300.00000000000006
20
-50
30
0
11
-299.99999999999994
21
-50
31
0
0
LINE
5
150
100
AcDbEntity
8
0
100
AcDbLine
10
-299.99999999999994
20
-50
30
0
11
-299.99999999999994
21
239.99999999999997
31
0
0
LINE
5
151
100
AcDbEntity
8
0
100
AcDbLine
10
-299.99999999999994
20
239.99999999999997
30
0
11
300.00000000000006
21
-50
31
0
0
LINE
5
152
100
AcDbEntity
8
0
100
AcDbLine
10
300.00000000000006
20
239.99999999999989
30
0
11
-299.99999999999994
21
-50
31
0
0
LINE
5
153
100
AcDbEntity
8
0
100
AcDbLine
10
0
20
0
30
0
11
2.7755575615628914e-16
21
569.9281630176672
31
0
0
ENDSEC
0
SECTION
2
OBJECTS
0
DICTIONARY
5
C
100
AcDbDictionary
3
ACAD_GROUP
350
D
3
ACAD_MLINESTYLE
350
17
0
DICTIONARY
5
D
100
AcDbDictionary
0
DICTIONARY
5
1A
330
C
100
AcDbDictionary
0
DICTIONARY
5
17
100
AcDbDictionary
0
ENDSEC
0
EOF
